<svg xmlns="http://www.w3.org/2000/svg" xmlns:xlink="http://www.w3.org/1999/xlink" aria-hidden="true" role="img" class="iconify iconify--logos" width="20" height="20" preserveAspectRatio="xMidYMid meet" 
    viewBox="0 0 350 350">
    <path d="M30.47-29.04L23.1-29.21C23.71-25.46 24.2-21.61 24.2-17.71 24.2-14.74 24.04-11.44 23.59-8.96 23.27-7.32 22.71-4.84 21.12-4.84 20.63-4.84 20.18-5.12 19.8-5.72 18.59-7.75 18.32-11.33 18.32-14.57 18.32-18.86 18.92-22.71 19.58-26.62L12.71-26.95C13.04-23.71 13.2-20.79 13.2-17.32 13.2-13.75 12.81-10.06 11.88-7.32 11.61-6.43 11.05-5.12 10.12-5.12 9.35-5.12 8.8-5.55 8.53-6.43 8.25-7.32 8.14-8.8 8.14-10.78 8.14-17.49 8.53-23.38 9.68-29.32L2.04-29.54C2.09-29.04 2.09-28.55 2.09-27.94L2.09-26.13C2.09-22.33 2.15-19.41 1.98-16.23 1.98-15.95 1.93-15.95 1.93-15.68L1.93-14.74C1.93-12.15 2.04-9.52 2.31-7.21 2.81-3.25 3.79 1.21 8.2 1.21 10.29 0.99 11.61-0.06 12.93-1.49 13.7-2.31 14.41-3.52 15.02-5.06 15.23-4.24 15.51-3.46 15.84-2.86 17-0.66 18.86 1.38 21.89 1.59 24.48 1.59 26.07 0.33 27.17-1.26 29.59-4.73 30.09-10.39 30.25-16.11 30.25-20.35 30.25-24.8 30.47-29.04ZM46.14-2.37C46.25-1.16 46.42 0 46.64 1.1L52.85 0.71C52.14-2.92 52.14-7.42 52.14-11.77 52.14-14.36 52.19-17.05 52.19-19.52 52.19-22.77 51.42-25.68 49.99-27.66 48.51-29.75 46.2-31.24 42.73-31.24 39.55-31.24 37.13-30.25 35.53-28.71 34.38-27.55 33.38-25.96 33.38-23.98 33.38-23.21 33.44-22.55 33.66-21.89 34.16-20.3 35.25-18.75 37.23-18.75 39.49-18.75 40.92-20.18 40.92-22.5 40.86-23.87 40.04-24.8 39.1-25.41 39.82-26.4 40.92-27.23 42.57-27.23 43.83-27.23 44.6-26.79 45.16-25.96 45.92-24.75 46.2-23.1 46.31-21.01 45.92-20.24 45.48-19.52 44.88-18.81 43.89-17.6 42.79-16.61 41.25-15.79 37.45-13.8 33.22-11.77 33.22-6 33.22-4.51 33.38-3.3 33.77-2.37 34.65-0.11 36.46 1.43 39.43 1.43 42.63 1.43 44.77-0.28 46.14-2.37ZM38.94-6.6C38.94-7.21 39.16-7.81 39.49-8.36 40.59-10.12 42.52-11.49 44.22-12.71 44.93-13.26 45.65-13.86 46.25-14.63L46.03-8.91C45.65-7.75 45.05-6.49 44.33-5.55 43.61-4.67 42.68-3.69 41.2-3.69 39.71-3.69 38.94-5.06 38.94-6.6ZM56.43-12.1C56.43-7.54 56.38-3.63 56.27 0.55L62.37 0.66C62.31-1.26 62.31-2.97 62.31-4.46L62.31-8.63C62.31-11.66 62.31-14.24 62.42-17.16 62.81-19.2 63.19-20.79 63.69-21.95 64.19-23.1 64.63-23.93 65.06-24.42 65.56-25.02 66.05-25.41 66.55-25.52 68.31-25.52 69.08-24.48 69.58-23.05 70.23-21.01 70.29-18.37 70.29-15.46 70.23-10.12 69.52-5.17 68.58-0.22L74.85 0.55C76.28-4.67 76.61-11.22 76.61-17.88 76.61-19.96 76.5-21.84 76.17-23.48 75.41-27.55 73.48-31.3 68.8-31.3 68.09-31.3 67.54-31.18 66.77-30.91 65.17-30.3 63.91-29.15 62.97-27.55L63.14-29.75 56.15-29.86C56.32-23.59 56.43-18.04 56.43-12.1ZM100.81-40.31L93.06-40.42C93.28-36.47 93.45-32.51 93.56-28.55 92.95-29.21 92.29-29.75 91.69-30.09 90.7-30.69 89.81-31.13 88.55-31.24 86.79-31.24 85.42-30.64 84.26-29.81 80.58-27.06 79.47-21.56 79.47-15.02 79.47-9.52 80.19-5.06 82.06-1.93 82.83-0.66 83.66 0.28 84.59 0.77 85.53 1.26 86.41 1.54 87.34 1.54 88.06 1.49 88.83 1.21 89.54 0.82 91.36-0.22 92.62-1.76 93.78-3.9L93.61 1.43 99.72 1.32C99.61-2.2 99.55-5.72 99.55-9.19 99.55-19.96 99.99-30.14 100.81-40.31ZM93.89-12.87L93.89-10.72C93.56-9.57 93.06-8.03 92.51-6.93 91.96-5.83 91.08-4.62 89.54-4.62 88.28-4.62 87.67-5.55 87.23-6.71 86.41-8.8 86.24-11.49 86.24-14.79 86.24-18.43 86.57-21.34 87.62-23.54 88.22-24.75 89.1-25.85 90.53-25.85 90.86-25.85 91.19-25.8 91.52-25.63 92.51-25.14 93.12-24.14 93.72-23.27 93.83-19.8 93.89-16.34 93.89-12.87ZM116.66-3.69C116.16-2.81 115.23-2.25 114.02-2.2 113.47-2.2 113.03-2.37 112.59-2.75 110.99-4.07 110.5-6.88 110.22-9.63 113.96-10.67 117.15-12.6 119.35-15.07 121.06-17 122.49-19.52 122.49-22.71 122.49-24.14 122.27-25.41 121.77-26.51 120.51-29.48 117.76-31.57 113.63-31.57 111.65-31.57 110.06-31.07 108.74-30.2 104.67-27.55 103.13-22.22 103.13-15.4 103.13-9.68 104.12-4.9 106.59-1.81 108.19 0.22 110.39 1.81 113.85 1.81 116.55 1.81 118.75 0.88 120.29-0.39 121.72-1.54 122.98-3.35 122.98-5.78 122.98-6.82 122.81-7.7 122.54-8.36 121.94-9.68 120.84-10.78 119.08-10.78 118.8-10.78 118.42-10.72 117.92-10.62 116.16-10.18 114.79-8.86 114.79-6.6 114.84-5.22 115.61-4.18 116.66-3.69ZM116.33-22.66C116.33-21.67 116.22-20.73 115.89-19.86 114.84-16.94 112.64-14.79 110-13.42L110-15.4C110-18.37 110.17-21.45 110.77-23.76 111.21-25.41 111.87-27.45 113.69-27.45 114.13-27.45 114.51-27.34 114.84-27.06 115.89-26.23 116.33-24.53 116.33-22.66ZM125.51 1.65L132.66 1.1C132.33-4.62 131.94-9.85 131.78-15.62 132.06-18.64 132.66-21.5 133.76-23.65 134.59-25.25 135.85-26.84 138-26.84 138.22-26.84 138.49-26.79 138.66-26.73 137.67-26.02 136.51-24.75 136.51-23.1 136.51-20.41 137.78-18.59 140.58-18.59 141.52-18.59 142.28-18.75 142.94-19.14 144.65-20.18 145.53-22.33 145.53-25.02 145.53-25.74 145.42-26.51 145.15-27.28 144.27-29.92 141.79-31.57 138.22-31.57 137.44-31.52 136.68-31.35 135.96-31.02 134.25-30.36 132.88-29.15 131.84-27.55 131.84-28.32 131.89-29.09 131.94-29.81L125.9-29.48C126.23-25.19 126.34-21.07 126.34-16.61 126.34-10.23 126.06-4.46 125.51 1.65ZM156.2-30.41C156.2-30.8 156.14-31.24 155.98-31.68 155.65-32.62 155.1-33.49 154.38-34.21 155.04-34.65 155.81-35.15 156.69-35.15 157.19-35.15 157.74-35.04 158.34-34.81 160.16-34.1 161.97-32.4 161.97-29.86 161.97-28.55 161.81-27.39 161.48-26.34 160.76-24.2 159.66-22.39 158.51-20.63 156.42-17.43 154.82-13.86 154.55-8.8L159-8.91C159.66-11.94 161.04-14.19 162.58-16.28 164.01-18.21 165.66-19.86 166.98-21.78 168.19-23.54 169.18-25.57 169.18-28.49 169.18-30.58 168.85-32.34 168.19-33.72 166.48-37.34 163.07-39.38 157.91-39.38 154.77-39.38 152.07-38.45 150.15-37.13 148.28-35.8 146.69-33.72 146.69-30.64 146.69-29.86 146.79-29.21 147.07-28.6 147.73-27.06 149.22-25.68 151.36-25.68 154.33-25.68 156.2-27.39 156.2-30.41ZM160.93-2.64C160.93-3.14 160.82-3.69 160.6-4.13 160.05-5.39 158.84-6.43 157.08-6.43 156.58-6.43 156.03-6.38 155.59-6.16 154.33-5.61 153.28-4.4 153.28-2.64 153.28-2.15 153.39-1.59 153.61-1.16 154.16 0.11 155.32 1.21 157.08 1.21 157.57 1.21 158.13 1.1 158.56 0.88 159.83 0.33 160.93-0.88 160.93-2.64Z" 
    transform="translate(100, 100)"></path>
</svg>